<svg xmlns="http://www.w3.org/2000/svg" fill="none" viewBox="0 0 127 32" height="32" width="127">
<g clip-path="url(#clip0_17094_7404)">
<path fill="black" d="M0.834408 32.0002H35.9224C36.3514 32.0002 36.6918 31.6174 36.6638 31.2066C36.6405 30.8985 35.7453 29.4747 35.5727 29.1667C34.8826 27.9016 33.992 26.4731 33.2786 25.1941L28.6764 17.2116C28.4712 16.8615 28.2893 16.5534 28.0935 16.1986C27.5759 15.2463 26.8998 14.1913 26.3822 13.2343L22.638 6.73631C22.5447 6.56359 22.4421 6.40954 22.3442 6.23215C21.9292 5.46191 21.3463 4.55629 20.9267 3.76738L18.889 0.242946C18.6419 -0.0838227 18.0777 -0.0744865 17.8026 0.224274C17.6673 0.368985 17.6021 0.53237 17.4948 0.709759L16.054 3.1932C15.0048 5.11647 13.6899 7.21712 12.6128 9.16373L0.246888 30.6184C0.176945 30.7351 -0.000244141 30.9825 -0.000244141 31.1599C-0.000244141 31.6781 0.256213 32.0002 0.834408 32.0002ZM4.55537 26.0623L9.15762 18.0845C9.33014 17.7764 9.47935 17.5057 9.66121 17.2116C9.84306 16.9035 9.98294 16.6374 10.1695 16.334L11.9786 13.211C12.0626 13.0476 12.1232 12.9402 12.2165 12.7769L17.3223 3.9261C17.4902 3.618 17.6534 3.34725 17.8305 3.05783C17.9331 2.88044 18.0077 2.75907 18.0917 2.60035C18.1336 2.52099 18.1709 2.45564 18.2129 2.38562C18.2968 2.2409 18.2129 2.26891 18.3854 2.23157C18.4274 2.39495 18.7864 2.9878 18.8843 3.15119C19.9055 4.85039 20.922 6.75498 21.9432 8.44951C22.0364 8.60823 22.111 8.73893 22.1996 8.90699C22.8758 10.144 23.7804 11.5958 24.4938 12.8796L26.0232 15.5217C26.1118 15.6804 26.1911 15.8251 26.2796 15.9839C26.3589 16.1239 26.4475 16.2593 26.5268 16.3993C26.69 16.6981 26.8625 16.9968 27.0444 17.3003L28.5738 19.9564C28.6577 20.1152 28.7463 20.2412 28.8349 20.3952L34.6681 30.5297H2.00479C2.04209 30.3617 4.29425 26.5058 4.55537 26.0577" clip-rule="evenodd" fill-rule="evenodd"></path>
<path fill="black" d="M24.2511 15.0309C23.0994 14.5687 20.6747 14.5874 19.6069 15.3296C19.1919 15.6097 18.6417 16.6414 18.3293 17.1362L12.9903 25.7209C12.7991 26.0523 12.5986 26.3511 12.3981 26.6779C12.2629 26.8879 11.2371 28.5078 11.2371 28.6058C11.2371 29.4974 12.4774 28.125 12.6452 27.9709L15.7181 25.2681C15.816 25.1794 15.8533 25.17 15.9466 25.086L17.9516 23.3215C18.0402 23.2468 18.0775 23.1908 18.1661 23.1207C18.2687 23.0367 18.292 23.032 18.3899 22.9293L22.1295 19.6477C22.2181 19.5543 22.2321 19.5496 22.3347 19.4703L24.1205 17.9111C24.2185 17.8131 24.2278 17.8084 24.3397 17.7151L24.7827 17.3323C25.7945 16.436 25.5427 15.5584 24.2558 15.0355M23.7988 17.0942C22.3253 17.575 19.5136 17.2249 19.5136 16.2353C19.5136 16.0952 19.8027 15.8291 19.9706 15.7311C20.1618 15.6191 20.3763 15.5117 20.6094 15.4463C23.4025 14.6854 26.6059 16.1839 23.8035 17.0989" clip-rule="evenodd" fill-rule="evenodd"></path>
<path fill="black" d="M12.2069 17.6454C12.3235 17.7527 12.3934 17.7854 12.5007 17.8928L14.5663 19.7133C14.6736 19.816 14.7575 19.8627 14.8601 19.9654L15.4383 20.4696C15.5875 20.591 15.5968 20.6843 15.788 20.703C15.8207 20.5536 15.9699 20.3669 16.0585 20.2175L17.5366 17.8554C17.7418 17.5333 17.9189 17.2112 18.1288 16.8985C17.9702 16.5997 17.7791 16.343 17.6112 16.0349C17.42 15.6801 17.2895 15.498 16.9397 15.288C15.1352 14.2003 11.2371 14.7651 11.2371 16.1889C11.2371 16.7584 11.4889 16.9638 11.8945 17.3746C12.0064 17.4867 12.0997 17.5333 12.2069 17.6454ZM16.1191 15.484C16.4595 15.5961 17.1496 15.8715 17.1076 16.3009C17.0703 16.6931 16.3942 16.9685 16.0212 17.0992C15.4383 17.2859 14.8321 17.3186 14.156 17.3186C13.396 17.3186 11.736 16.9405 11.736 16.2309C11.736 15.4747 14.3705 14.9005 16.1191 15.4887" clip-rule="evenodd" fill-rule="evenodd"></path>
<path fill="black" d="M20.8427 21.207C20.7168 21.2911 20.6749 21.3097 20.563 21.4264C20.4464 21.5431 20.3811 21.5758 20.2692 21.6738L19.4299 22.4254C19.304 22.5374 19.2574 22.5701 19.1408 22.6868C19.0289 22.7895 18.9636 22.8222 18.847 22.9296C18.7211 23.0556 18.6838 23.0743 18.5439 23.1676C18.6605 23.3497 18.7724 23.3917 18.9263 23.5318C19.5371 24.0826 20.922 25.2403 21.3696 25.6838L21.9945 26.2299C22.0784 26.3093 22.097 26.3373 22.1903 26.412C22.3535 26.538 22.4374 26.6314 22.596 26.7574C22.6752 26.8228 22.7125 26.8788 22.7871 26.9488C22.8757 27.0235 22.9037 27.0235 22.997 27.1122L24.2373 28.2139C24.4425 28.3726 24.9694 28.9001 25.0999 28.9001C25.804 28.9001 24.9973 27.9525 24.8481 27.6957L20.8381 21.207H20.8427Z" clip-rule="evenodd" fill-rule="evenodd"></path>
<path fill="black" d="M70.0266 21.2998H67.1916C65.3498 14.349 63.5033 7.39346 61.6521 0.409942H64.4964C65.8207 6.34313 67.3082 12.2343 68.5578 18.1908C70.0079 12.2156 71.8498 6.35246 73.4445 0.409942H76.7971C76.8297 0.503304 76.867 0.606003 76.8997 0.71337C77.9581 4.45254 79.0166 8.19171 80.0657 11.9355C80.63 13.9428 81.0589 15.9828 81.3807 18.0461C81.3853 18.0881 81.3947 18.1348 81.4133 18.2188C82.8588 12.2576 84.2996 6.33846 85.7404 0.405273H88.5288C86.6171 7.38412 84.7146 14.335 82.8075 21.2951H80.131C78.4524 15.2172 76.7738 9.13467 75.0905 3.0521C73.4025 9.13467 71.7192 15.2126 70.0313 21.2951L70.0266 21.2998Z"></path>
<path fill="black" d="M90.2727 10.9551C90.3053 9.28863 90.4872 7.64078 91.1213 6.0863C92.5202 2.65989 95.0475 0.643261 98.7218 0.115763C100.62 -0.154988 102.48 0.0270687 104.257 0.769301C106.984 1.90832 108.742 3.94829 109.652 6.73516C110.216 8.46237 110.365 10.2409 110.225 12.0475C110.123 13.3966 109.824 14.6943 109.288 15.9407C108.038 18.8396 105.842 20.6228 102.806 21.3651C100.662 21.8879 98.5306 21.7899 96.4696 20.9683C93.7792 19.8946 91.9933 17.9387 91.0048 15.2312C90.4965 13.8494 90.2727 12.4209 90.2774 10.9551H90.2727ZM107.423 11.2026C107.441 9.83013 107.311 8.51372 106.886 7.23465C106.332 5.5728 105.376 4.21905 103.842 3.32277C102.191 2.36113 100.41 2.1464 98.5866 2.58987C96.1013 3.20139 94.3714 4.69986 93.6253 7.21598C93.3968 7.98622 93.2616 8.77514 93.1963 9.57339C93.0937 10.9038 93.0844 12.2295 93.3642 13.546C93.7372 15.2825 94.5579 16.7436 95.9614 17.8546C97.2903 18.9096 98.8197 19.3484 100.503 19.2831C103.441 19.1664 105.492 17.7333 106.681 15.0584C107.227 13.826 107.381 12.5003 107.423 11.1979V11.2026Z"></path>
<path fill="black" d="M62.412 21.3045H59.2599C58.4533 19.2085 57.6373 17.0985 56.8259 14.9838H48.0784C47.3183 17.0845 46.5583 19.1805 45.7889 21.2905H42.8513C45.5278 14.3163 48.195 7.36545 50.8668 0.405273H53.865C56.7047 7.35144 59.549 14.307 62.412 21.3045ZM52.2796 2.744C52.2516 2.8467 52.2237 2.95407 52.2004 3.05677C51.9626 4.17245 51.6548 5.26479 51.2585 6.33379C50.5217 8.32241 49.7803 10.3017 49.0389 12.2903C48.9923 12.421 48.9503 12.5517 48.8991 12.7058H55.9493C54.7509 9.36341 53.3847 6.10505 52.2796 2.744Z"></path>
<path fill="black" d="M116.487 18.8397H126.769V21.2905H113.75V0.405273H116.487V18.8397Z"></path>
<path fill="black" d="M50.2141 25.9297C49.5194 27.9603 48.8386 29.9536 48.1485 31.9656H47.1833C46.5025 29.9816 45.8171 27.979 45.127 25.9624C45.5746 25.9157 45.9989 26.1678 46.2087 26.5879C46.274 26.7186 46.316 26.8587 46.3626 26.9987C46.7496 28.1517 47.1366 29.3048 47.5237 30.4531C47.5563 30.5558 47.5983 30.6539 47.6682 30.8266C47.906 30.1264 48.1158 29.5148 48.321 28.8986C48.5542 28.2078 48.7873 27.5122 49.0204 26.8167C49.1836 26.3265 49.5194 26.0277 50.0276 25.925C50.0696 25.9157 50.1116 25.925 50.2095 25.925L50.2141 25.9297Z"></path>
<path fill="black" d="M120.749 25.917C120.814 26.0197 120.879 26.1084 120.94 26.2064C121.588 27.2521 122.227 28.2977 122.884 29.3341C123.132 29.7309 123.262 30.1463 123.248 30.6131C123.239 30.8932 123.248 31.1733 123.248 31.5187C122.996 31.2713 122.88 31.0052 122.721 30.7718C122.558 30.5291 122.404 30.277 122.25 30.0296C122.092 29.7822 121.938 29.5348 121.779 29.2874C121.621 29.04 121.467 28.7926 121.308 28.5451C121.155 28.3024 120.996 28.0597 120.842 27.8123C120.819 27.8169 120.795 27.8216 120.777 27.8309V31.9622C120.269 31.9249 119.961 31.6401 119.9 31.192C119.891 31.1266 119.891 31.0566 119.891 30.9912C119.891 29.6282 119.891 28.2651 119.891 26.8973C119.891 26.6779 119.933 26.4725 120.063 26.2904C120.231 26.057 120.46 25.9403 120.758 25.917H120.749Z"></path>
<path fill="black" d="M71.9802 31.9617C72.0082 31.4482 72.302 31.1307 72.8056 31.1074C73.2532 31.0841 73.7055 31.0934 74.1578 31.0887C74.2697 31.0887 74.3816 31.0887 74.4935 31.0794C74.8899 31.0421 75.1789 30.7573 75.2302 30.3652C75.2769 30.0057 75.0531 29.6369 74.6987 29.5156C74.5728 29.4736 74.4376 29.4596 74.3023 29.4502C74.0552 29.4362 73.8034 29.4596 73.5609 29.4362C72.3812 29.3195 71.817 28.1898 72.0315 27.4336H72.8475C72.8568 27.527 72.8755 27.6157 72.8708 27.6997C72.8429 28.1245 73.2345 28.5493 73.7335 28.5586C73.9946 28.5633 74.251 28.5539 74.5122 28.5679C75.3328 28.61 76.0089 29.2355 76.1208 30.0431C76.2281 30.8553 75.7478 31.6396 74.9691 31.8963C74.7919 31.957 74.5961 31.9897 74.4049 31.9944C73.6635 32.0037 72.9175 31.999 72.1761 31.9944C72.1108 31.9944 72.0502 31.9757 71.9896 31.9663L71.9802 31.9617Z"></path>
<path fill="black" d="M102.541 31.9949V31.1499C102.634 31.1266 102.718 31.1032 102.806 31.0846C103.716 30.8932 104.247 30.3143 104.429 29.4321C104.583 28.6758 104.429 27.9756 103.888 27.3874C103.669 27.1493 103.398 26.9953 103.105 26.8693C102.68 26.6872 102.522 26.4118 102.555 25.917C102.727 25.8563 102.904 25.903 103.072 25.9403C104.266 26.2064 105.175 27.2054 105.334 28.4331C105.455 29.3714 105.268 30.2303 104.662 30.9725C104.191 31.5467 103.576 31.8735 102.848 31.9855C102.76 31.9995 102.671 31.9855 102.545 31.9855L102.541 31.9949Z"></path>
<path fill="black" d="M102.014 25.9118V26.7474C101.972 26.7614 101.934 26.7848 101.892 26.7894C100.741 26.9155 99.9807 27.9658 100.088 29.1608C100.167 30.0384 100.601 30.678 101.445 31.0141C101.888 31.1915 102.051 31.4949 102 31.971C100.703 32.1671 99.2766 30.7573 99.188 29.1888C99.0668 26.9995 100.769 25.8465 102.014 25.9118Z"></path>
<path fill="black" d="M61.4469 31.9569C60.9852 31.9335 60.6961 31.6908 60.6075 31.266C60.5842 31.1586 60.5842 31.0419 60.5842 30.9299C60.5842 29.3754 60.5842 27.8256 60.5842 26.2711C60.5842 26.1637 60.5936 26.0517 60.5982 25.9443C61.0785 25.963 61.4002 26.2431 61.4562 26.6632C61.4702 26.7519 61.4702 26.8406 61.4702 26.934C61.4702 28.5211 61.4702 30.1083 61.4702 31.6955C61.4702 31.7842 61.4562 31.8729 61.4515 31.9569H61.4469Z"></path>
<path fill="black" d="M86.6214 25.9492C87.0877 25.9586 87.4234 26.2526 87.4794 26.6915C87.4887 26.7708 87.4887 26.8502 87.4887 26.9295C87.4887 28.5167 87.4887 30.1038 87.4887 31.691C87.4887 31.7797 87.4794 31.8684 87.4747 31.9571C87.0085 31.9478 86.6727 31.6583 86.6121 31.2149C86.6028 31.1495 86.6028 31.0795 86.6028 31.0141C86.6028 29.4036 86.6028 27.7931 86.6028 26.1826C86.6028 26.1033 86.6121 26.0286 86.6214 25.9492Z"></path>
<path fill="black" d="M123.664 25.9346C124.232 26.0093 124.522 26.322 124.526 26.8635C124.536 27.5497 124.526 28.2406 124.526 28.9268C124.526 29.6131 124.536 30.3459 124.526 31.0602C124.517 31.597 124.209 31.9191 123.664 31.9658V25.9392V25.9346Z"></path>
<path fill="black" d="M76.0974 25.9391C76.0788 26.4433 75.7477 26.7887 75.2441 26.8027C74.8058 26.8167 74.3675 26.8027 73.9245 26.8027C73.4862 26.8027 73.0479 26.8027 72.6049 26.8027C72.4977 26.8027 72.3904 26.7934 72.2366 26.7841C72.3531 26.5413 72.5163 26.3919 72.6935 26.2612C72.9733 26.0558 73.2904 25.9298 73.6354 25.9251C74.4141 25.9111 75.1882 25.9158 75.9669 25.9158C76.0088 25.9158 76.0508 25.9298 76.0928 25.9391H76.0974Z"></path>
<path fill="black" d="M0.834408 32.0002H35.9224C36.3514 32.0002 36.6918 31.6174 36.6638 31.2066C36.6405 30.8985 35.7453 29.4747 35.5727 29.1667C34.8826 27.9016 33.992 26.4731 33.2786 25.1941L28.6764 17.2116C28.4712 16.8615 28.2893 16.5534 28.0935 16.1986C27.5759 15.2463 26.8998 14.1913 26.3822 13.2343L22.638 6.73631C22.5447 6.56359 22.4421 6.40954 22.3442 6.23215C21.9292 5.46191 21.3463 4.55629 20.9267 3.76738L18.889 0.242946C18.6419 -0.0838227 18.0777 -0.0744865 17.8026 0.224274C17.6673 0.368985 17.6021 0.53237 17.4948 0.709759L16.054 3.1932C15.0048 5.11647 13.6899 7.21712 12.6128 9.16373L0.246888 30.6184C0.176945 30.7351 -0.000244141 30.9825 -0.000244141 31.1599C-0.000244141 31.6781 0.256213 32.0002 0.834408 32.0002ZM4.55537 26.0623L9.15762 18.0845C9.33014 17.7764 9.47935 17.5057 9.66121 17.2116C9.84306 16.9035 9.98294 16.6374 10.1695 16.334L11.9786 13.211C12.0626 13.0476 12.1232 12.9402 12.2165 12.7769L17.3223 3.9261C17.4902 3.618 17.6534 3.34725 17.8305 3.05783C17.9331 2.88044 18.0077 2.75907 18.0917 2.60035C18.1336 2.52099 18.1709 2.45564 18.2129 2.38562C18.2968 2.2409 18.2129 2.26891 18.3854 2.23157C18.4274 2.39495 18.7864 2.9878 18.8843 3.15119C19.9055 4.85039 20.922 6.75498 21.9432 8.44951C22.0364 8.60823 22.111 8.73893 22.1996 8.90699C22.8758 10.144 23.7804 11.5958 24.4938 12.8796L26.0232 15.5217C26.1118 15.6804 26.1911 15.8251 26.2796 15.9839C26.3589 16.1239 26.4475 16.2593 26.5268 16.3993C26.69 16.6981 26.8625 16.9968 27.0444 17.3003L28.5738 19.9564C28.6577 20.1152 28.7463 20.2412 28.8349 20.3952L34.6681 30.5297H2.00479C2.04209 30.3617 4.29425 26.5058 4.55537 26.0577"></path>
<path fill="black" d="M24.2511 15.0309C23.0994 14.5687 20.6747 14.5874 19.6069 15.3296C19.1919 15.6097 18.6417 16.6414 18.3293 17.1362L12.9903 25.7209C12.7991 26.0523 12.5986 26.3511 12.3981 26.6779C12.2629 26.8879 11.2371 28.5078 11.2371 28.6058C11.2371 29.4974 12.4774 28.125 12.6452 27.9709L15.7181 25.2681C15.816 25.1794 15.8533 25.17 15.9466 25.086L17.9516 23.3215C18.0402 23.2468 18.0775 23.1908 18.1661 23.1207C18.2687 23.0367 18.292 23.032 18.3899 22.9293L22.1295 19.6477C22.2181 19.5543 22.2321 19.5496 22.3347 19.4703L24.1205 17.9111C24.2185 17.8131 24.2278 17.8084 24.3397 17.7151L24.7827 17.3323C25.7945 16.436 25.5427 15.5584 24.2558 15.0355M23.7988 17.0942C22.3253 17.575 19.5136 17.2249 19.5136 16.2353C19.5136 16.0952 19.8027 15.8291 19.9706 15.7311C20.1618 15.6191 20.3763 15.5117 20.6094 15.4463C23.4025 14.6854 26.6059 16.1839 23.8035 17.0989"></path>
<path fill="black" d="M12.2069 17.6454C12.3235 17.7527 12.3934 17.7854 12.5007 17.8928L14.5663 19.7133C14.6736 19.816 14.7575 19.8627 14.8601 19.9654L15.4383 20.4696C15.5875 20.591 15.5968 20.6843 15.788 20.703C15.8207 20.5536 15.9699 20.3669 16.0585 20.2175L17.5366 17.8554C17.7418 17.5333 17.9189 17.2112 18.1288 16.8985C17.9702 16.5997 17.7791 16.343 17.6112 16.0349C17.42 15.6801 17.2895 15.498 16.9397 15.288C15.1352 14.2003 11.2371 14.7651 11.2371 16.1889C11.2371 16.7584 11.4889 16.9638 11.8945 17.3746C12.0064 17.4867 12.0997 17.5333 12.2069 17.6454ZM16.1191 15.484C16.4595 15.5961 17.1496 15.8715 17.1076 16.3009C17.0703 16.6931 16.3942 16.9685 16.0212 17.0992C15.4383 17.2859 14.8321 17.3186 14.156 17.3186C13.396 17.3186 11.736 16.9405 11.736 16.2309C11.736 15.4747 14.3705 14.9005 16.1191 15.4887"></path>
<path fill="black" d="M20.8427 21.207C20.7168 21.2911 20.6749 21.3097 20.563 21.4264C20.4464 21.5431 20.3811 21.5758 20.2692 21.6738L19.4299 22.4254C19.304 22.5374 19.2574 22.5701 19.1408 22.6868C19.0289 22.7895 18.9636 22.8222 18.847 22.9296C18.7211 23.0556 18.6838 23.0743 18.5439 23.1676C18.6605 23.3497 18.7724 23.3917 18.9263 23.5318C19.5371 24.0826 20.922 25.2403 21.3696 25.6838L21.9945 26.2299C22.0784 26.3093 22.097 26.3373 22.1903 26.412C22.3535 26.538 22.4374 26.6314 22.596 26.7574C22.6752 26.8228 22.7125 26.8788 22.7871 26.9488C22.8757 27.0235 22.9037 27.0235 22.997 27.1122L24.2373 28.2139C24.4425 28.3726 24.9694 28.9001 25.0999 28.9001C25.804 28.9001 24.9973 27.9525 24.8481 27.6957L20.8381 21.207H20.8427Z"></path>
<path fill="black" d="M70.0266 21.2998H67.1916C65.3498 14.349 63.5033 7.39346 61.6521 0.409942H64.4964C65.8207 6.34313 67.3082 12.2343 68.5578 18.1908C70.0079 12.2156 71.8498 6.35246 73.4445 0.409942H76.7971C76.8297 0.503304 76.867 0.606003 76.8997 0.71337C77.9581 4.45254 79.0166 8.19171 80.0657 11.9355C80.63 13.9428 81.0589 15.9828 81.3807 18.0461C81.3853 18.0881 81.3947 18.1348 81.4133 18.2188C82.8588 12.2576 84.2996 6.33846 85.7404 0.405273H88.5288C86.6171 7.38412 84.7146 14.335 82.8075 21.2951H80.131C78.4524 15.2172 76.7738 9.13467 75.0905 3.0521C73.4025 9.13467 71.7192 15.2126 70.0313 21.2951L70.0266 21.2998Z"></path>
<path fill="black" d="M90.2727 10.9551C90.3053 9.28863 90.4872 7.64078 91.1213 6.0863C92.5202 2.65989 95.0475 0.643261 98.7218 0.115763C100.62 -0.154988 102.48 0.0270687 104.257 0.769301C106.984 1.90832 108.742 3.94829 109.652 6.73516C110.216 8.46237 110.365 10.2409 110.225 12.0475C110.123 13.3966 109.824 14.6943 109.288 15.9407C108.038 18.8396 105.842 20.6228 102.806 21.3651C100.662 21.8879 98.5306 21.7899 96.4696 20.9683C93.7792 19.8946 91.9933 17.9387 91.0048 15.2312C90.4965 13.8494 90.2727 12.4209 90.2774 10.9551H90.2727ZM107.423 11.2026C107.441 9.83013 107.311 8.51372 106.886 7.23465C106.332 5.5728 105.376 4.21905 103.842 3.32277C102.191 2.36113 100.41 2.1464 98.5866 2.58987C96.1013 3.20139 94.3714 4.69986 93.6253 7.21598C93.3968 7.98622 93.2616 8.77514 93.1963 9.57339C93.0937 10.9038 93.0844 12.2295 93.3642 13.546C93.7372 15.2825 94.5579 16.7436 95.9614 17.8546C97.2903 18.9096 98.8197 19.3484 100.503 19.2831C103.441 19.1664 105.492 17.7333 106.681 15.0584C107.227 13.826 107.381 12.5003 107.423 11.1979V11.2026Z"></path>
<path fill="black" d="M62.412 21.3045H59.2599C58.4533 19.2085 57.6373 17.0985 56.8259 14.9838H48.0784C47.3183 17.0845 46.5583 19.1805 45.7889 21.2905H42.8513C45.5278 14.3163 48.195 7.36545 50.8668 0.405273H53.865C56.7047 7.35144 59.549 14.307 62.412 21.3045ZM52.2796 2.744C52.2516 2.8467 52.2237 2.95407 52.2004 3.05677C51.9626 4.17245 51.6548 5.26479 51.2585 6.33379C50.5217 8.32241 49.7803 10.3017 49.0389 12.2903C48.9923 12.421 48.9503 12.5517 48.8991 12.7058H55.9493C54.7509 9.36341 53.3847 6.10505 52.2796 2.744Z"></path>
<path fill="black" d="M116.487 18.8397H126.769V21.2905H113.75V0.405273H116.487V18.8397Z"></path>
<path fill="black" d="M50.2141 25.9297C49.5194 27.9603 48.8386 29.9536 48.1485 31.9656H47.1833C46.5025 29.9816 45.8171 27.979 45.127 25.9624C45.5746 25.9157 45.9989 26.1678 46.2087 26.5879C46.274 26.7186 46.316 26.8587 46.3626 26.9987C46.7496 28.1517 47.1366 29.3048 47.5237 30.4531C47.5563 30.5558 47.5983 30.6539 47.6682 30.8266C47.906 30.1264 48.1158 29.5148 48.321 28.8986C48.5542 28.2078 48.7873 27.5122 49.0204 26.8167C49.1836 26.3265 49.5194 26.0277 50.0276 25.925C50.0696 25.9157 50.1116 25.925 50.2095 25.925L50.2141 25.9297Z"></path>
<path fill="black" d="M120.749 25.917C120.814 26.0197 120.879 26.1084 120.94 26.2064C121.588 27.2521 122.227 28.2977 122.884 29.3341C123.132 29.7309 123.262 30.1463 123.248 30.6131C123.239 30.8932 123.248 31.1733 123.248 31.5187C122.996 31.2713 122.88 31.0052 122.721 30.7718C122.558 30.5291 122.404 30.277 122.25 30.0296C122.092 29.7822 121.938 29.5348 121.779 29.2874C121.621 29.04 121.467 28.7926 121.308 28.5451C121.155 28.3024 120.996 28.0597 120.842 27.8123C120.819 27.8169 120.795 27.8216 120.777 27.8309V31.9622C120.269 31.9249 119.961 31.6401 119.9 31.192C119.891 31.1266 119.891 31.0566 119.891 30.9912C119.891 29.6282 119.891 28.2651 119.891 26.8973C119.891 26.6779 119.933 26.4725 120.063 26.2904C120.231 26.057 120.46 25.9403 120.758 25.917H120.749Z"></path>
<path fill="black" d="M71.9802 31.9617C72.0082 31.4482 72.302 31.1307 72.8056 31.1074C73.2532 31.0841 73.7055 31.0934 74.1578 31.0887C74.2697 31.0887 74.3816 31.0887 74.4935 31.0794C74.8899 31.0421 75.1789 30.7573 75.2302 30.3652C75.2769 30.0057 75.0531 29.6369 74.6987 29.5156C74.5728 29.4736 74.4376 29.4596 74.3023 29.4502C74.0552 29.4362 73.8034 29.4596 73.5609 29.4362C72.3812 29.3195 71.817 28.1898 72.0315 27.4336H72.8475C72.8568 27.527 72.8755 27.6157 72.8708 27.6997C72.8429 28.1245 73.2345 28.5493 73.7335 28.5586C73.9946 28.5633 74.251 28.5539 74.5122 28.5679C75.3328 28.61 76.0089 29.2355 76.1208 30.0431C76.2281 30.8553 75.7478 31.6396 74.9691 31.8963C74.7919 31.957 74.5961 31.9897 74.4049 31.9944C73.6635 32.0037 72.9175 31.999 72.1761 31.9944C72.1108 31.9944 72.0502 31.9757 71.9896 31.9663L71.9802 31.9617Z"></path>
<path fill="black" d="M102.541 31.9949V31.1499C102.634 31.1266 102.718 31.1032 102.806 31.0846C103.716 30.8932 104.247 30.3143 104.429 29.4321C104.583 28.6758 104.429 27.9756 103.888 27.3874C103.669 27.1493 103.398 26.9953 103.105 26.8693C102.68 26.6872 102.522 26.4118 102.555 25.917C102.727 25.8563 102.904 25.903 103.072 25.9403C104.266 26.2064 105.175 27.2054 105.334 28.4331C105.455 29.3714 105.268 30.2303 104.662 30.9725C104.191 31.5467 103.576 31.8735 102.848 31.9855C102.76 31.9995 102.671 31.9855 102.545 31.9855L102.541 31.9949Z"></path>
<path fill="black" d="M102.014 25.9118V26.7474C101.972 26.7614 101.934 26.7848 101.892 26.7894C100.741 26.9155 99.9807 27.9658 100.088 29.1608C100.167 30.0384 100.601 30.678 101.445 31.0141C101.888 31.1915 102.051 31.4949 102 31.971C100.703 32.1671 99.2766 30.7573 99.188 29.1888C99.0668 26.9995 100.769 25.8465 102.014 25.9118Z"></path>
<path fill="black" d="M61.4469 31.9569C60.9852 31.9335 60.6961 31.6908 60.6075 31.266C60.5842 31.1586 60.5842 31.0419 60.5842 30.9299C60.5842 29.3754 60.5842 27.8256 60.5842 26.2711C60.5842 26.1637 60.5936 26.0517 60.5982 25.9443C61.0785 25.963 61.4002 26.2431 61.4562 26.6632C61.4702 26.7519 61.4702 26.8406 61.4702 26.934C61.4702 28.5211 61.4702 30.1083 61.4702 31.6955C61.4702 31.7842 61.4562 31.8729 61.4515 31.9569H61.4469Z"></path>
<path fill="black" d="M86.6214 25.9492C87.0877 25.9586 87.4234 26.2526 87.4794 26.6915C87.4887 26.7708 87.4887 26.8502 87.4887 26.9295C87.4887 28.5167 87.4887 30.1038 87.4887 31.691C87.4887 31.7797 87.4794 31.8684 87.4747 31.9571C87.0085 31.9478 86.6727 31.6583 86.6121 31.2149C86.6028 31.1495 86.6028 31.0795 86.6028 31.0141C86.6028 29.4036 86.6028 27.7931 86.6028 26.1826C86.6028 26.1033 86.6121 26.0286 86.6214 25.9492Z"></path>
<path fill="black" d="M123.664 25.9346C124.232 26.0093 124.522 26.322 124.526 26.8635C124.536 27.5497 124.526 28.2406 124.526 28.9268C124.526 29.6131 124.536 30.3459 124.526 31.0602C124.517 31.597 124.209 31.9191 123.664 31.9658V25.9392V25.9346Z"></path>
<path fill="black" d="M76.0974 25.9391C76.0788 26.4433 75.7477 26.7887 75.2441 26.8027C74.8058 26.8167 74.3675 26.8027 73.9245 26.8027C73.4862 26.8027 73.0479 26.8027 72.6049 26.8027C72.4977 26.8027 72.3904 26.7934 72.2366 26.7841C72.3531 26.5413 72.5163 26.3919 72.6935 26.2612C72.9733 26.0558 73.2904 25.9298 73.6354 25.9251C74.4141 25.9111 75.1882 25.9158 75.9669 25.9158C76.0088 25.9158 76.0508 25.9298 76.0928 25.9391H76.0974Z"></path>
</g>
<defs>
<clipPath id="clip0_17094_7404">
<rect fill="white" height="32" width="126.769"></rect>
</clipPath>
</defs>
</svg>
